<svg width="512" height="512" viewBox="0 0 512 512" xmlns="http://www.w3.org/2000/svg">
  <rect width="512" height="512" rx="112" fill="#1d9e75"/>
  <path d="M150 150 C150 300 210 372 360 372 C372 372 384 366 384 354 C384 346 378 340 368 340 C236 340 188 286 188 158 C188 148 180 140 169 140 C158 140 150 148 150 150 Z" fill="#f7e6a0"/>
  <path d="M360 372 C372 372 384 366 384 354 C384 346 378 340 368 340 C320 340 282 332 254 314 C300 350 330 372 360 372 Z" fill="#ecc94b"/>
  <circle cx="169" cy="146" r="14" fill="#3a2a12"/>
</svg>
